<?xml version="1.0" encoding="UTF-8"?>
<svg xmlns="http://www.w3.org/2000/svg" xmlns:xlink="http://www.w3.org/1999/xlink" width="24px" height="24px" viewBox="0 0 24 23" version="1.1">
<g id="surface1">
<path style=" stroke:none;fill-rule:evenodd;fill:rgb(99.607843%,99.607843%,99.607843%);fill-opacity:1;" d="M -0.0390625 -0.0390625 C 7.960938 -0.0390625 15.960938 -0.0390625 23.960938 -0.0390625 C 23.960938 7.628906 23.960938 15.296875 23.960938 22.960938 C 15.960938 22.960938 7.960938 22.960938 -0.0390625 22.960938 C -0.0390625 15.296875 -0.0390625 7.628906 -0.0390625 -0.0390625 Z M -0.0390625 -0.0390625 "/>
<path style=" stroke:none;fill-rule:evenodd;fill:rgb(5.882353%,5.882353%,5.882353%);fill-opacity:1;" d="M 11.921875 1.984375 C 12.707031 1.890625 13.242188 2.1875 13.523438 2.882812 C 13.644531 3.300781 13.722656 3.726562 13.757812 4.15625 C 13.847656 5.332031 13.910156 6.503906 13.953125 7.679688 C 14.125 7.671875 14.28125 7.621094 14.421875 7.53125 C 15.058594 6.816406 15.460938 5.992188 15.636719 5.058594 C 16.179688 4.335938 16.871094 4.164062 17.707031 4.53125 C 17.839844 4.671875 17.957031 4.820312 18.058594 4.980469 C 18.105469 6.46875 17.820312 7.894531 17.199219 9.253906 C 16.433594 10.296875 15.429688 11.046875 14.1875 11.5 C 14.136719 12.777344 14.082031 14.050781 14.03125 15.320312 C 14.738281 15.367188 15.441406 15.429688 16.144531 15.507812 C 16.390625 15.589844 16.558594 15.75 16.652344 15.996094 C 16.824219 16.558594 16.667969 17.007812 16.183594 17.34375 C 16.003906 18.507812 15.742188 19.65625 15.402344 20.789062 C 15.1875 21.0625 14.914062 21.25 14.578125 21.351562 C 13.011719 21.917969 11.394531 22.070312 9.734375 21.800781 C 9.140625 21.621094 8.566406 21.394531 8.011719 21.128906 C 7.738281 20.816406 7.570312 20.453125 7.503906 20.039062 C 7.441406 19.167969 7.386719 18.292969 7.347656 17.417969 C 7.21875 17.292969 7.089844 17.167969 6.957031 17.042969 C 6.90625 16.695312 6.90625 16.34375 6.957031 15.996094 C 7.046875 15.835938 7.164062 15.695312 7.308594 15.582031 C 8.039062 15.546875 8.769531 15.53125 9.5 15.546875 C 9.523438 15.03125 9.578125 14.519531 9.65625 14.011719 C 9.628906 13.921875 9.601562 13.835938 9.578125 13.746094 C 8.589844 13.273438 7.625 12.761719 6.683594 12.210938 C 6.425781 11.964844 6.230469 11.679688 6.097656 11.351562 C 5.558594 10.078125 5.351562 8.753906 5.472656 7.378906 C 5.792969 6.382812 6.433594 6.144531 7.386719 6.667969 C 7.535156 6.785156 7.652344 6.921875 7.738281 7.078125 C 7.910156 7.726562 8.066406 8.375 8.207031 9.027344 C 8.515625 9.785156 9.074219 10.257812 9.890625 10.449219 C 9.910156 8.222656 10.054688 6 10.320312 3.785156 C 10.511719 2.886719 11.046875 2.289062 11.921875 1.984375 Z M 11.921875 1.984375 "/>
<path style=" stroke:none;fill-rule:evenodd;fill:rgb(96.078432%,96.078432%,96.078432%);fill-opacity:1;" d="M 12.078125 2.511719 C 12.15625 2.511719 12.234375 2.511719 12.3125 2.511719 C 12.445312 3.792969 12.523438 5.078125 12.546875 6.367188 C 12.421875 9.023438 12.355469 11.683594 12.351562 14.347656 C 12.324219 14.722656 12.285156 15.097656 12.234375 15.46875 C 11.949219 15.46875 11.660156 15.46875 11.375 15.46875 C 11.324219 13.15625 11.402344 10.84375 11.609375 8.539062 C 11.453125 6.648438 11.519531 4.761719 11.804688 2.882812 C 11.824219 2.703125 11.914062 2.578125 12.078125 2.511719 Z M 12.078125 2.511719 "/>
<path style=" stroke:none;fill-rule:evenodd;fill:rgb(96.470588%,96.470588%,96.470588%);fill-opacity:1;" d="M 11.0625 10.902344 C 11 10.984375 10.960938 11.082031 10.945312 11.199219 C 10.90625 11.550781 10.890625 11.898438 10.90625 12.25 C 10.90625 13.347656 10.90625 14.445312 10.90625 15.546875 C 10.671875 15.546875 10.4375 15.546875 10.203125 15.546875 C 10.28125 11.59375 10.503906 7.648438 10.867188 3.707031 C 10.957031 3.570312 11.050781 3.433594 11.140625 3.296875 C 11.226562 3.265625 11.277344 3.300781 11.296875 3.410156 C 11.210938 3.878906 11.148438 4.355469 11.101562 4.832031 C 11.132812 6.855469 11.121094 8.878906 11.0625 10.902344 Z M 11.0625 10.902344 "/>
<path style=" stroke:none;fill-rule:evenodd;fill:rgb(94.509804%,94.509804%,94.509804%);fill-opacity:1;" d="M 13.328125 15.46875 C 13.148438 15.46875 12.964844 15.46875 12.78125 15.46875 C 12.78125 15.171875 12.78125 14.871094 12.78125 14.570312 C 12.855469 13.097656 12.855469 11.625 12.78125 10.152344 C 12.964844 7.753906 12.980469 5.355469 12.820312 2.960938 C 12.917969 3.070312 12.996094 3.195312 13.054688 3.332031 C 13.152344 3.804688 13.230469 4.28125 13.289062 4.757812 C 13.453125 7.753906 13.53125 10.75 13.523438 13.746094 C 13.535156 14.351562 13.46875 14.925781 13.328125 15.46875 Z M 13.328125 15.46875 "/>
<path style=" stroke:none;fill-rule:evenodd;fill:rgb(94.509804%,94.509804%,94.509804%);fill-opacity:1;" d="M 16.457031 4.980469 C 16.535156 5.371094 16.523438 5.769531 16.417969 6.179688 C 16.269531 7.550781 15.550781 8.539062 14.265625 9.140625 C 14.167969 9.175781 14.0625 9.1875 13.953125 9.175781 C 13.941406 8.925781 13.953125 8.675781 13.992188 8.429688 C 14.457031 8.210938 14.847656 7.910156 15.167969 7.53125 C 15.539062 6.914062 15.828125 6.261719 16.027344 5.582031 C 16.128906 5.347656 16.273438 5.148438 16.457031 4.980469 Z M 16.457031 4.980469 "/>
<path style=" stroke:none;fill-rule:evenodd;fill:rgb(95.686275%,95.686275%,95.686275%);fill-opacity:1;" d="M 17.003906 4.90625 C 17.175781 4.882812 17.320312 4.933594 17.433594 5.058594 C 17.464844 6.367188 17.257812 7.640625 16.808594 8.878906 C 16.683594 9.121094 16.527344 9.347656 16.339844 9.550781 C 15.691406 10.132812 14.949219 10.585938 14.109375 10.902344 C 14.007812 10.476562 14.007812 10.050781 14.109375 9.628906 C 15.46875 9.164062 16.316406 8.261719 16.652344 6.929688 C 16.789062 6.257812 16.90625 5.582031 17.003906 4.90625 Z M 17.003906 4.90625 "/>
<path style=" stroke:none;fill-rule:evenodd;fill:rgb(94.901961%,94.901961%,94.901961%);fill-opacity:1;" d="M 6.917969 7.003906 C 6.996094 7 7.0625 7.023438 7.113281 7.078125 C 7.332031 7.503906 7.460938 7.953125 7.503906 8.429688 C 7.65625 8.960938 7.839844 9.488281 8.050781 10 C 8.519531 10.554688 9.105469 10.929688 9.8125 11.125 C 9.8125 11.398438 9.8125 11.675781 9.8125 11.949219 C 8.917969 11.769531 8.148438 11.367188 7.503906 10.75 C 7.105469 9.777344 6.855469 8.765625 6.761719 7.714844 C 6.773438 7.46875 6.824219 7.230469 6.917969 7.003906 Z M 6.917969 7.003906 "/>
<path style=" stroke:none;fill-rule:evenodd;fill:rgb(93.725491%,93.725491%,93.725491%);fill-opacity:1;" d="M 6.214844 7.003906 C 6.371094 8.007812 6.539062 9.03125 6.722656 10.078125 C 7.003906 10.847656 7.511719 11.433594 8.246094 11.835938 C 8.726562 12.066406 9.222656 12.253906 9.734375 12.398438 C 9.734375 12.597656 9.734375 12.796875 9.734375 13 C 9.542969 12.996094 9.359375 12.960938 9.1875 12.886719 C 8.5 12.617188 7.847656 12.292969 7.230469 11.910156 C 7.007812 11.695312 6.8125 11.457031 6.644531 11.199219 C 6.125 10.027344 5.914062 8.800781 6.019531 7.53125 C 6.078125 7.347656 6.144531 7.175781 6.214844 7.003906 Z M 6.214844 7.003906 "/>
<path style=" stroke:none;fill-rule:evenodd;fill:rgb(69.411767%,69.411767%,69.411767%);fill-opacity:1;" d="M 11.0625 10.902344 C 11.027344 11.363281 10.976562 11.8125 10.90625 12.25 C 10.890625 11.898438 10.90625 11.550781 10.945312 11.199219 C 10.960938 11.082031 11 10.984375 11.0625 10.902344 Z M 11.0625 10.902344 "/>
<path style=" stroke:none;fill-rule:evenodd;fill:rgb(23.137255%,23.137255%,23.137255%);fill-opacity:1;" d="M 12.78125 14.570312 C 12.78125 14.871094 12.78125 15.171875 12.78125 15.46875 C 12.964844 15.46875 13.148438 15.46875 13.328125 15.46875 C 13.101562 15.542969 12.867188 15.617188 12.625 15.695312 C 12.664062 15.308594 12.71875 14.933594 12.78125 14.570312 Z M 12.78125 14.570312 "/>
<path style=" stroke:none;fill-rule:evenodd;fill:rgb(98.039216%,98.039216%,98.039216%);fill-opacity:1;" d="M 11.0625 15.996094 C 12.652344 15.984375 14.242188 15.996094 15.832031 16.03125 C 15.902344 16.0625 15.96875 16.097656 16.027344 16.144531 C 16.085938 16.363281 16.074219 16.578125 15.988281 16.78125 C 13.148438 16.820312 10.304688 16.832031 7.464844 16.820312 C 7.464844 16.570312 7.464844 16.320312 7.464844 16.070312 C 8.679688 16.09375 9.875 16.070312 11.0625 15.996094 Z M 11.0625 15.996094 "/>
<path style=" stroke:none;fill-rule:evenodd;fill:rgb(99.215686%,99.215686%,99.215686%);fill-opacity:1;" d="M 10.828125 17.34375 C 12.363281 17.34375 13.902344 17.34375 15.441406 17.34375 C 15.429688 18.386719 15.289062 19.410156 15.011719 20.414062 C 14.863281 20.582031 14.695312 20.71875 14.5 20.828125 C 13.011719 21.386719 11.472656 21.539062 9.890625 21.277344 C 9.351562 21.160156 8.84375 20.976562 8.363281 20.714844 C 8.167969 20.414062 8.039062 20.089844 7.972656 19.742188 C 7.933594 18.96875 7.921875 18.191406 7.933594 17.417969 C 8.914062 17.441406 9.878906 17.417969 10.828125 17.34375 Z M 10.828125 17.34375 "/>
</g>
</svg>
